<?xml version="1.0" encoding="utf-8"?>
<!-- Generator: Adobe Illustrator 27.5.0, SVG Export Plug-In . SVG Version: 6.00 Build 0)  -->
<svg version="1.1" id="katman_1" xmlns="http://www.w3.org/2000/svg" xmlns:xlink="http://www.w3.org/1999/xlink" x="0px" y="0px"
	 viewBox="0 0 841.89 595.28" style="enable-background:new 0 0 841.89 595.28;" xml:space="preserve">
<path d="M71.74,196.45h-6.33v126.67h27.93V193.67C86.4,195.37,79.15,196.3,71.74,196.45z M164.01,282.23
	c-0.15,3.55-0.62,6.94-1.39,10.34c-2.47,11.42-8.49,20.52-18.98,26.23c-8.33,4.47-17.43,5.25-26.54,3.24
	c-2.31-0.46-4.78-1.54-7.1-2.31c22.53,3.86,21.75-20.37,21.75-24.69v-27.77c0-4.32,0.77-28.54-21.75-24.69
	c2.31-0.93,4.78-1.7,7.1-2.31c9.1-1.7,18.21-1.08,26.54,3.24c10.65,5.71,16.66,14.97,18.98,26.38c0.77,3.39,1.23,6.79,1.39,10.34
	C164.01,280.23,164.01,282.23,164.01,282.23z M316.44,196.45h-6.33v126.67h27.93V193.67C331.1,195.37,323.85,196.3,316.44,196.45z
	 M353.63,319.73c3.09,0,5.71,0.31,8.33,0c12.5-0.62,13.58-18.05,13.73-21.91c0.46-10.18,0.62-20.37,0.46-30.7
	c0-4.32,0.77-27.93-21.29-24.22c2.31-0.93,4.63-1.54,7.1-2.16c9.1-1.7,17.74-1.08,25.77,3.24c10.34,5.55,16.2,14.5,18.67,25.61
	c2.78,12.5,1.54,24.53-5.4,35.64c-6.33,10.34-15.58,16.35-27.77,17.74c-6.02,0.77-12.19-0.15-17.74-2.31
	C354.71,320.19,354.24,319.88,353.63,319.73z M442.96,196.45h-6.33v126.67h27.93V193.67C457.61,195.37,450.36,196.3,442.96,196.45z
	 M562.84,242.12h-6.33l-0.15,81h27.93l0.15-79.61v-4.17C577.5,240.89,570.24,241.97,562.84,242.12z M479.99,319.88
	c3.09,0,5.71,0.31,8.33,0c12.5-0.62,13.58-18.05,13.73-22.06c0.46-10.18,0.62-20.37,0.46-30.7c0-4.32,0.77-27.93-21.29-24.22
	c2.31-0.77,4.63-1.7,7.1-2.16c9.1-1.7,17.74-1.08,25.92,3.24c10.34,5.55,16.2,14.66,18.67,25.61c2.78,12.5,1.54,24.53-5.4,35.79
	c-6.33,10.49-15.58,16.51-27.77,17.74c-6.02,0.77-12.19-0.15-17.74-2.31C481.22,320.5,480.6,320.19,479.99,319.88z M226.65,323.58
	c-21.14-2.47-38.88-19.9-38.88-41.97c0.15-22.06,17.13-40.27,39.03-41.97c0,0-7.1,3.86-7.1,17.28v48.6
	C219.55,305.22,218.62,317.72,226.65,323.58z M655.56,323.27c-17.9-1.08-45.51-10.03-45.67-43.05
	c0.15-21.75,16.82-39.65,38.26-41.19c0,0-7.1,3.86-7.1,16.82v47.52C641.06,303.37,640.75,319.26,655.56,323.27z M245.32,323.58
	c21.14-2.47,39.03-19.75,39.03-41.97c-0.15-22.06-17.13-40.27-39.03-41.97c0,0,7.1,3.86,7.1,17.28v48.6
	C252.41,305.22,253.34,317.72,245.32,323.58z M571.17,194.14c8.02,0,14.66,6.48,14.66,14.81c0,8.02-6.48,14.81-14.66,14.81
	c-8.02,0-14.66-6.48-14.66-14.81C556.51,200.77,563.15,194.14,571.17,194.14z M661.27,239.03c0,0,30.09,3.24,33.17,36.26h-27.62
	l-0.15-19.9C666.67,255.23,666.83,243.66,661.27,239.03z M745.36,239.5c-1.85,2.16-4.32,4.17-6.02,6.79
	c-3.7,6.17-2.31,14.81,3.09,19.9c2.93,2.62,6.02,4.94,9.41,7.1c5.86,3.86,12.34,7.41,16.97,12.81c8.64,10.34,7.1,22.06-4.17,29.62
	c-5.71,3.86-12.03,6.33-18.82,7.56c1.54-1.08,2.93-2.16,4.17-3.39c4.17-4.32,4.32-9.72,0.62-14.97c-3.09-4.47-7.71-7.25-12.34-10.18
	c-5.71-3.86-11.88-6.94-16.82-12.03c-8.33-8.49-8.02-22.37-1.23-31.01c5.4-6.79,12.96-9.87,20.83-11.88
	C742.74,239.81,744.28,239.5,745.36,239.5z M719.9,300.59c5.09,0,9.1,4.01,9.1,9.1c0,5.09-4.01,9.1-9.1,9.1s-9.1-4.01-9.1-9.1
	C710.95,304.61,714.97,300.59,719.9,300.59z M766.03,244.28c5.09,0,9.1,4.01,9.1,9.1c0,5.09-4.01,9.1-9.1,9.1
	c-5.09,0-9.1-4.01-9.1-9.1C757.09,248.29,761.1,244.28,766.03,244.28z M347.76,366.63l-10.34,0.15v34.25h4.94v-15.12h6.17
	c0,0,11.73,0.77,11.73-10.03C360.26,365.86,347.76,366.63,347.76,366.63z M348.38,381.9h-5.86v-11.42h5.55c0,0,8.02,0,8.02,5.71
	C355.94,382.52,348.38,381.9,348.38,381.9z M387.11,366.47h-4.32l-14.5,34.41h5.55l3.7-8.64h15.12l3.7,8.64h5.09L387.11,366.47z
	 M378.62,387.77l6.17-15.74l6.02,15.74H378.62z M438.95,391.78c0.15,3.09,0.93,6.17,2.01,9.26h-5.71c0,0-1.08-4.78-1.7-10.03
	c-0.62-5.4-4.32-5.71-4.32-5.71h-9.26v15.58h-4.78v-34.41h14.35c6.79,0,9.1,4.01,9.72,6.33c0.46,2.01,0.46,4.17,0.15,6.17
	c-0.62,2.16-2.31,3.86-4.32,4.78C434.78,383.6,438.48,384.68,438.95,391.78z M429.38,370.95h-9.72v10.03h9.57
	c2.78,0.31,5.09-1.85,5.25-4.47c0-0.15,0-0.31,0-0.46C434.47,371.87,431.54,370.95,429.38,370.95z M457.15,366.47h5.25v34.25h-5.25
	V366.47z M477.52,390.54l5.25,0.15c0,6.17,7.1,5.86,7.1,5.86c4.47,0,6.63-1.08,7.71-2.93c0.93-1.54,0.93-3.55-0.15-5.09
	c-1.23-1.85-5.09-2.62-8.18-3.39c-2.16-0.46-4.32-1.08-6.33-2.01c-1.39-0.77-2.62-1.7-3.55-3.09c-0.77-1.23-1.08-2.62-1.08-4.17
	c0-1.7,0.46-3.24,1.39-4.63c1.08-1.54,2.47-2.78,4.32-3.55c2.16-0.93,4.32-1.39,6.63-1.39c2.31-0.15,4.32,0.31,6.48,1.08
	c3.09,1.23,5.25,4.32,5.25,7.71h-5.09c0-3.39-4.01-4.63-6.48-4.63c-2.01-0.15-4.01,0.46-5.71,1.7c-1.08,0.77-1.85,1.85-2.01,3.24
	c0,1.08,0.31,2.16,1.23,2.93c0.93,0.77,3.09,1.54,6.48,2.47c2.47,0.46,4.94,1.08,7.25,2.16c1.7,0.77,3.09,1.85,4.32,3.39
	c0.93,1.39,1.39,3.09,1.39,4.63c0,1.7-0.46,3.55-1.54,5.09c-1.08,1.7-2.62,2.93-4.32,3.7c-2.01,0.93-4.17,1.23-6.33,1.23
	c-2.62,0.15-5.09-0.15-7.71-1.08c-1.85-0.77-3.7-2.16-4.78-3.86C478.13,394.25,477.67,392.55,477.52,390.54z"/>
</svg>
