<?xml version="1.0" encoding="utf-8"?>
<!-- Generator: Adobe Illustrator 25.0.0, SVG Export Plug-In . SVG Version: 6.00 Build 0)  -->
<svg version="1.1" id="katman_1" xmlns:serif="http://www.serif.com/"
	 xmlns="http://www.w3.org/2000/svg" xmlns:xlink="http://www.w3.org/1999/xlink" x="0px" y="0px" viewBox="0 0 1200 1200"
	 style="enable-background:new 0 0 1200 1200;" xml:space="preserve">
<style type="text/css">
	.st0{fill:#120F0D;}
</style>
<g transform="matrix(0.720721,0,0,0.720721,40,161.398)">
	<path class="st0" d="M808.9,511.4c0,0-13.7,5.5-29.7,23c-16,17.6-25.2,37.4-18.4,42.6c2.6,2,8.7,2.3,19.8-7.6
		c8.6-7.7,17.4-17.9,23.4-32.4C811.2,519.6,808.9,511.6,808.9,511.4 M896.2,543.1c-17.7-9.1-30.7-20.2-44.1-27.1
		c-12.9-6.6-21.2-9.4-31.6-8c-1.7,0.2-4.3,1.1-4.3,1.1s5.4,18.3-15.9,49c-21.6,31.1-41.1,30.9-46.7,22.3c-5.8-9,1.7-27.4,14.3-43.8
		c13.2-17.1,36.3-31.3,36.3-31.3s-7.4-4.5-25.5,5.8c-17.6,10-48.1,33.8-76.2,73.9c-28.1,40.1-33.8,62.2-37.8,79.6
		c-4.1,17.4-0.4,36,18.9,36c19.3,0,41.7-29.4,48-39.6c11.8-19,19.4-48.2,3.4-44.2c-7.9,2-14.3,10.7-18.3,19.1
		c-4.1,8.6-5.8,16.9-5.8,16.9s-6.7,2.4-15.6,9.1c-9,6.7-14.8,13.1-14.8,13.1s0.1-13.9,11.1-36.4s31.4-32.7,42.9-33.7
		c10.4-0.8,23.9,8,12.4,40.5c-11.4,32.5-45.2,71.9-80.6,72.4c-32.7,0.5-54.1-41.3-8.6-114.1c50.4-80.6,109.5-105.3,128.7-108
		s25.4,5.7,25.4,5.7s16.1-7.4,36.5-6c23.4,1.6,41.6,18.2,65.5,29.8C907.5,531,901.5,537.2,896.2,543.1 M1001.5,516
		c-16.2,10.4-38.7,19.9-60.3,17.8c-5.5,5.7-11.3,12.2-17.2,19.3c37.5,7.4,70.3-15.8,87.7-35.5c10.9-12.3,16.3-23.3,16.3-23.3
		S1017.6,505.6,1001.5,516 M951.6,621.5c0.5-0.8,0.7-1.6,0.7-1.6s-0.4-3.1-3.4-3.3c-3.6-0.2-8.4,0.5-21.2,14.6
		c-12.7,14.1-20.4,26.3-27.1,38.5c-7.3,13.3-10.3,23.3-6.1,25.9c1.2,0.7,3,0.8,4.4,0.5c2.8-0.7,6.1-3.3,11-9
		c2.3-2.7,4.8-6.4,7.9-10.6C926.2,665,947.4,628.8,951.6,621.5 M819.1,636.8c2.1-5.6,4.8-16.5-0.8-20.8c-6.1-4.6-21.5,6.1-21.6,17.1
		c-0.1,11.2,10.9,16.3,13.5,17c1.5,0.4,2,0.3,2.7-0.9C813.4,648.5,816.9,642.4,819.1,636.8 M807.4,657.3c-0.4-0.1-5.4-2.4-10.6-6.8
		c-5.2-4.3-7.8-9.3-8-9.7c-0.2-0.4-0.4-0.1-0.7,0.2c-0.2,0.3-1.2,1.1-9.4,13.2c-8.3,12.1-20.9,37-9.4,41.3
		c7.3,2.7,19.5-10.1,26.2-18.6c6.2-7.9,12-18,12.3-18.7C808.1,657.6,807.8,657.4,807.4,657.3 M937.2,686.1c-3.1,5-6.6,14.5,3.6,8.6
		c12.5-7.2,30.3-34.2,30.3-34.2h8.1c0,0-10.6,16.8-24.5,32.1c-12.7,14-28.1,26.8-39,25.5c-12.7-1.5-8.7-18.2-8.7-18.2
		s-18.3,19.4-30.8,18c-17-1.9-11.8-22.9-11.8-22.9s-19.2,23.6-32.3,22.9c-20.5-1.2-15.4-26.2-9.7-43.8c3.1-9.4,5.9-16.8,5.9-16.8
		s-2,0.5-6.4,1.2c-2.3,0.3-6.4,0.6-6.4,0.6s-8.6,15.1-15.4,24.1c-6.8,9.1-35.9,40.3-53,34.1c-15.8-5.8-10.6-30-1.4-49.2
		c13.4-28,51.2-68.4,73-63.1c22.6,5.5,0.5,46.7,0.5,46.7s0,0.2,0.2,0.3c0.5,0.2,1.6,0.3,4.4-0.2c4.3-0.8,8.3-2.5,8.3-2.5
		s22.7-47.6,47.8-78.7c25.1-31.1,75.2-84.7,94.8-71.7c4.8,3.2,2.6,14.2-3.9,27.5c-2.9,0.9-5.8,1.7-8.9,2.3
		c4.3-7.9,7.2-14.5,8.1-19.1c3-16.1-34.6,17.8-61.4,54.3c-26.8,36.5-42.9,69.5-42.9,69.5s5.4-3.1,13.8-9.9
		c8.8-7.1,20.9-18.2,34.1-31.8c8.9-9.2,19.3-20.6,29-33.5c2.9-0.1,5.8-0.4,8.5-0.9c-10.9,14.6-22.3,28-32,37.8
		c-10.7,10.8-22.3,22.5-32.4,30.9c-16,13.5-28.4,21.1-28.4,21.1s-23.5,47.3-10.7,50.4c7.5,1.8,22.3-21,22.3-21s19.3-29.5,31-42.8
		c15.9-18.1,29.6-28.5,43.3-28.7c8-0.1,12.7,8.4,12.7,8.4l3.8-5.8l23.1,0C983.7,607.5,940.6,680.6,937.2,686.1 M1001.5,516
		c-16.2,10.4-38.7,19.9-60.3,17.8c-5.5,5.7-11.3,12.2-17.2,19.3c37.5,7.4,70.3-15.8,87.7-35.5c10.9-12.3,16.3-23.3,16.3-23.3
		S1017.6,505.6,1001.5,516 M677.5,551.8l-21.9,0l-12.4,20.1l21.9,0L677.5,551.8z M573.6,621.2c9.3-12.8,35.1-57.6,35.1-57.6
		s-0.4-3.2-3.4-3.3c-3.6-0.2-9.5,1-21.3,15.8c-11.8,14.8-21,26.5-27.7,38.8c-7.3,13.3-10.5,22.8-6.3,25.3c1.2,0.7,3,0.8,4.4,0.5
		c2.7-0.7,6.3-3.4,11.2-9.1C567.9,629,570.5,625.4,573.6,621.2 M455.8,560.6c-6.1-4.6-21.5,6.1-21.6,17.1
		c-0.1,11.2,13.9,14.4,15.8,14.5c0,0,1.6,0.4,2.2-0.9c0.4-0.8,2.3-4.4,4.4-9.9C458.7,575.8,461.4,564.9,455.8,560.6 M446.7,599.3
		c-0.4-0.2-6.2-1.8-11.9-5.5c-5.7-3.6-8.3-9-8.5-9.4c-0.2-0.4-0.5-0.1-0.7,0.2c-0.2,0.3-1.5,1.9-9.7,14c-8.3,12.1-20.5,36.9-9,41.1
		c7.3,2.7,19.6-10.2,26.3-18.7c6.2-7.9,13.5-20.1,13.9-20.8C447.3,599.6,447,599.4,446.7,599.3 M625.9,606.7h8
		c0,0-40.3,58.2-63.1,55.6c-12.7-1.5-8.9-17.2-8.9-17.2s-17.9,20.9-34.2,16.7c-14.9-3.8-5.3-28.5-5.3-28.5
		c-1.7,0.7-33.9,36.9-56.5,28.2c-23.7-9.1-11.4-39.5-6.9-48.6c3.8-7.7,8-15.2,8-15.2s-3.6,1-5.9,1.5c-2.3,0.5-5.7,1.2-5.7,1.2
		s-11.2,18.2-18,27.3c-6.8,9.1-35.9,40.3-53,34.1c-17.1-6.2-12.9-30.2-3.3-49.2c15.6-30.9,52.6-68.8,74.9-63.1
		c22.5,5.7,3.9,42.3,3.9,42.3s4.5,0.6,15.2-6.8c15.5-10.5,35.9-38.9,58-35.6c10.4,1.6,20,12.2,6.8,32.4c-4.2,6.5-11.3,12.3-16.8,6.6
		c-3.4-3.5-0.4-10.1,3.1-14.5c5-6.3,11.9-5.4,11.9-5.4s3.6-8.4-5.6-8.2c-7.5,0.2-26.5,17.7-37.3,35.4c-9.9,16.2-24.8,43.9-9.8,50
		c13.7,5.5,39.9-25.5,52-41.7c12.1-16.2,39.7-53.1,62.8-54.6c8-0.5,12.7,6.8,12.7,6.8l2.7-4.2l23.1,0c0,0-43.6,72.7-47,78.2
		c-2.7,4.3-6.2,14,3.6,8.6C605.5,633.1,625.9,606.7,625.9,606.7 M613.3,723.3c-17.5-12.3-38.8-17.7-58.2-17
		c-19.6,0.8-28.4,15.4-28.4,15.4c-8.8-15.4-26.3-24.9-53.3-24.6c-43.6,0.5-86.9,20.6-121.1,20.6c-32.9,0-56.8-20.7-56-57.3
		c1.4-64.3,55.8-122.2,96.4-148.2c23.3-15,42.9-19.4,55.7-18c9.3,1,20.5,11.8,13.5,27.7c-10.4,23.3-24.8,21.3-24.2,10.2
		c0.3-7.2,5.1-11.8,8.7-14.3c2.3-1.6,6.3-2,8.5-2.1c2.1-1.7,3.6-14.4-13.1-10.3c-16.7,4.2-36.9,20.6-56.1,41.8
		c-19.2,21.2-49.1,61.3-56.5,103.4c-3.4,19.5-1.2,55.1,45.1,54.7c39.2-0.3,97.1-26.1,150.3-25.6c20.6,0.2,38.6,5.8,52.6,14.4
		C591,702.5,607.5,714.8,613.3,723.3"/>
	<path class="st0" d="M192.8,639.9l46.4,0l-1.5-10.5l-32.8,0v-12.8H227V606l-22.1,0v-10.9l32,0l1.5-10.5l-45.6,0L192.8,639.9z
		 M124.3,639.9h12.1l0-24.5l28.3,0l0,24.5h12.1l0-55.4h-12.1v20.1l-28.3,0v-20.1h-12.1L124.3,639.9z M63.4,595.3l18.5,0l0,44.5H94
		l0-44.5h18.5v-10.8h-49V595.3z"/>
	<path class="st0" d="M1490.6,584.6h-13.3l-14.5,25.9l-14.7-25.9h-13.6l22.1,37l0,18.4h12.1v-18.6L1490.6,584.6z M1413.2,584.6
		l0,37.5l-26.5-37.6h-12.5l0,55.4h11.8l0-38.2l26.9,38.2h12.2l0-55.4L1413.2,584.6z M1325.8,617.2l8.2-21.9l8.2,21.9L1325.8,617.2z
		 M1350.8,640h12.7l-22-55.4h-14.8l-22.1,55.4h12.6l4.6-12.3l24.3,0L1350.8,640z M1284.8,609h-16.1v-13.8h16.1
		c2.4,0,4.3,0.6,5.6,1.8c1.3,1.2,2,2.9,2,5.1s-0.7,3.9-2,5.1C1289.1,608.4,1287.2,609,1284.8,609 M1285.1,584.5l-28.5,0l0,55.4h12.1
		l0-20.2h16.4c4.2,0,7.8-0.8,10.7-2.3c2.9-1.5,5.1-3.6,6.6-6.3c1.5-2.7,2.2-5.7,2.2-9c0-3.3-0.7-6.3-2.2-9c-1.5-2.7-3.7-4.8-6.6-6.3
		C1292.9,585.3,1289.3,584.5,1285.1,584.5 M1240.5,584.5h-16.2l-16.3,38.5l-16.6-38.5h-16.2l0,55.4h11.7l0-39.6l16.8,38.9h8.1
		l17-39.9l0,40.6h11.7V584.5z M1132.5,629.9c-3.3,0-6.2-0.8-8.8-2.3c-2.6-1.5-4.6-3.6-6.1-6.3s-2.2-5.7-2.2-9.2s0.7-6.5,2.2-9.2
		c1.5-2.7,3.5-4.8,6.1-6.3c2.6-1.5,5.5-2.3,8.8-2.3s6.2,0.8,8.8,2.3c2.6,1.5,4.6,3.6,6.1,6.3c1.5,2.7,2.2,5.8,2.2,9.2
		s-0.7,6.5-2.2,9.2s-3.5,4.8-6.1,6.3C1138.7,629.2,1135.8,629.9,1132.5,629.9 M1132.5,640.8c5.7,0,10.8-1.2,15.3-3.6
		c4.5-2.4,8-5.8,10.5-10.2c2.5-4.3,3.8-9.3,3.8-14.8c0-5.5-1.3-10.5-3.8-14.8c-2.5-4.4-6-7.8-10.5-10.2c-4.5-2.4-9.6-3.7-15.3-3.7
		c-5.7,0-10.8,1.2-15.3,3.6c-4.5,2.4-8,5.8-10.5,10.2c-2.5,4.4-3.8,9.3-3.8,14.8c0,5.5,1.3,10.5,3.8,14.8c2.5,4.4,6,7.8,10.5,10.2
		C1121.7,639.6,1126.8,640.8,1132.5,640.8 M1074.3,640.8c4.5,0,8.7-0.7,12.7-2.2c3.9-1.5,7.1-3.6,9.7-6.6l-7.5-8.2
		c-4,4-8.8,6.1-14.5,6.1c-3.6,0-6.8-0.8-9.7-2.4c-2.9-1.6-5.1-3.7-6.8-6.4c-1.6-2.7-2.4-5.7-2.4-9c0-3.3,0.8-6.3,2.5-9
		c1.6-2.7,3.9-4.8,6.7-6.4c2.9-1.6,6-2.4,9.6-2.4c2.7,0,5.3,0.5,7.6,1.5c2.3,1,4.6,2.6,6.7,4.8l7.5-8.4c-2.5-2.9-5.6-5.1-9.5-6.5
		c-3.9-1.5-8.1-2.3-12.7-2.3c-5.9,0-11.2,1.2-15.9,3.7c-4.7,2.5-8.4,5.9-11.1,10.3c-2.7,4.4-4,9.3-4,14.7c0,5.4,1.3,10.3,4,14.7
		c2.7,4.4,6.4,7.8,11.1,10.3C1063,639.6,1068.3,640.8,1074.3,640.8"/>
</g>
</svg>
