<?xml version="1.0" encoding="utf-8"?>
<!-- Generator: Adobe Illustrator 26.0.3, SVG Export Plug-In . SVG Version: 6.00 Build 0)  -->
<svg version="1.0" id="Layer_1" xmlns="http://www.w3.org/2000/svg" xmlns:xlink="http://www.w3.org/1999/xlink" x="0px" y="0px"
	 viewBox="0 0 1106 680.5" style="enable-background:new 0 0 1106 680.5;" xml:space="preserve">
<style type="text/css">
	.st0{fill:#FFFFFF;}
</style>
<g>
	<polygon points="139.1,388.8 106.6,367.4 56.3,388.7 85.9,353.9 53,332.4 104.3,332.4 139.1,291.5 139.1,332.4 188.8,332.4 
		139.1,353.5 	"/>
	<path d="M200.9,311.5c1.7,0,3.2-1.4,3.2-3.2l0-13.7c0-1.7-1.4-3.2-3.2-3.2h-53.3v20L200.9,311.5z"/>
	<path d="M200.9,389c1.7,0,3.2-1.4,3.2-3.2l0-13.7c0-1.7-1.4-3.2-3.2-3.2h-53.3v20L200.9,389z"/>
	<path d="M916.2,291.4h-66.6c-1.7,0-3.2,1.4-3.2,3.2v13.7c0,1.7,1.4,3.2,3.2,3.2h23.3v74.4c0,1.7,1.4,3.2,3.2,3.2h13.7
		c1.7,0,3.2-1.4,3.2-3.2v-74.4h23.3c1.7,0,3.2-1.4,3.2-3.2v-13.7C919.4,292.9,918,291.4,916.2,291.4"/>
	<path d="M650.8,313.3c-1.6-4.3-3.9-8.1-7-11.3c-3.1-3.2-6.8-5.8-11.2-7.7c-4.4-1.9-9.4-2.9-14.8-2.9h-36.2c-1.7,0-3.2,1.4-3.2,3.2
		v91.2c0,1.8,1.4,3.2,3.2,3.2h13.7c1.7,0,3.2-1.4,3.2-3.2l0-23.4h19.4c5.4,0,10.4-0.9,14.7-2.8c4.3-1.9,8.1-4.4,11.1-7.6
		c3.1-3.2,5.4-6.9,7-11.1c1.6-4.2,2.4-9.5,2.4-14.1C653.1,322.1,652.3,317.6,650.8,313.3 M631.9,333.2c-0.7,1.9-1.7,3.6-3,5
		c-1.3,1.4-2.7,2.2-4.4,3c-1.7,0.8-4.7,1.2-10.7,1.2h-15.4v-30.9h20.2c2.2,0,4.1,0.4,5.9,1.2c1.8,0.8,3.3,1.9,4.6,3.2
		c1.3,1.3,2.2,2.9,2.9,4.8c0.7,1.9,1.1,4.1,1.1,6.3C633,329.1,632.6,331.2,631.9,333.2"/>
	<path d="M514.6,319.4c-0.1,2,0.4,3.2,1.2,4.3c0.9,1.2,2.1,2.3,3.6,3.1c1.7,0.9,3.7,1.6,6,2.1c2.5,0.5,5,1,7.6,1.5
		c4.6,0.7,9.2,1.6,13.6,2.7c4.6,1.1,8.6,2.8,12.1,5c3.6,2.3,6.4,5.4,8.4,9.1c2.1,3.8,3,8.6,2.7,14.3c-0.2,5.6-1.7,10.3-4.2,14.1
		c-2.5,3.7-5.8,6.8-9.6,9.1c-3.8,2.2-7.6,3.9-12.2,4.7c-4.6,0.8-9.7,1.1-14.1,0.9c-11.1-0.5-27.5-6.9-35.7-18.1
		c-0.6-0.9-1.5-2.4,0.3-4.2c1.8-1.8,10.2-10.4,10.2-10.4c1.7-1.8,3.4-0.5,4.1,0.5c4.8,7,14.4,12.3,21.9,12.6c4,0.2,4.4,0,6.9-0.3
		c2.2-0.3,4.2-0.9,6.1-1.7c1.7-0.8,3.1-1.8,4.3-3.3c1-1.3,1.6-3.2,1.8-5.4c0.1-2.1-0.4-3.8-1.4-5.2c-1.1-1.5-2.5-2.6-4.3-3.5
		c-2-1-4.2-1.7-6.7-2.1c-2.7-0.5-5.3-0.9-7.9-1.3c-4.3-0.5-8.5-1.4-12.6-2.6c-4.2-1.2-8-2.9-11.3-5.1c-3.4-2.2-6.1-5.2-8.1-8.7
		c-2-3.6-3-7.6-2.7-12.8c0.2-5.2,1.5-9.7,3.8-13.5c2.3-3.8,5.3-6.8,8.9-9.2c3.5-2.3,7.6-4,12.1-5c8.8-2,17.5-1.7,26.2,1.1
		c9.4,3,16.9,10.1,20.3,15.2c0.6,0.9,1.3,2.4-0.1,3.9c-1.4,1.5-9.6,9.6-9.6,9.6c-1.8,1.7-3.6,1.3-4.6-0.2
		c-5.1-7.4-11.6-10.8-19.2-11.3C524.1,309.1,515,310.9,514.6,319.4"/>
	<path d="M472.8,303.2c-4.5-4.3-9.8-7.6-15.8-9.8c-5.9-2.2-12.3-3.3-18.9-3.3c-6.5,0-12.9,1.1-18.8,3.3c-6,2.2-11.4,5.5-15.9,9.8
		c-4.6,4.3-8.2,9.6-10.9,15.9c-2.7,6.2-4,13.3-4,21.2c0,7.9,1.3,15.1,4,21.2c2.6,6.2,6.3,11.5,10.8,15.8c4.5,4.3,9.8,7.6,15.8,9.8
		c5.9,2.2,12.3,3.3,18.9,3.3c7.2,0,14-1.2,20.1-3.6c6.1-2.4,11.4-5.9,15.8-10.4c4.4-4.4,7.8-9.8,10.3-15.9c2.4-6.1,3.7-13,3.7-20.3
		c0-7.8-1.4-15-4-21.2C480.9,312.9,477.3,307.5,472.8,303.2 M464.8,353.8c-1.5,3.8-3.6,6.9-6.3,9.5c-2.6,2.5-5.7,4.5-9.2,5.7
		c-3.5,1.3-7.4,2-11.4,2c-4.1,0-8-0.7-11.5-2c-3.5-1.3-6.5-3.2-9.1-5.7c-2.6-2.5-4.6-5.7-6.2-9.5c-1.5-3.8-2.3-8.3-2.3-13.4
		c0-5.1,0.8-9.6,2.3-13.4c1.5-3.8,3.6-7,6.2-9.5c2.6-2.5,5.7-4.5,9.2-5.8c3.5-1.3,7.4-2,11.5-2c4,0,7.8,0.7,11.3,2
		c3.5,1.3,6.6,3.3,9.1,5.8c2.6,2.6,4.7,5.8,6.3,9.6c1.6,3.8,2.3,8.3,2.3,13.3C467.1,345.5,466.3,350,464.8,353.8"/>
	<path d="M744.4,303.2c-4.5-4.3-9.8-7.6-15.8-9.8c-5.9-2.2-12.3-3.3-18.9-3.3c-6.5,0-12.9,1.1-18.8,3.3c-6,2.2-11.4,5.5-15.9,9.8
		c-4.6,4.3-8.2,9.6-10.9,15.9c-2.7,6.2-4,13.3-4,21.2c0,7.9,1.3,15.1,4,21.2c2.6,6.2,6.3,11.5,10.8,15.8c4.5,4.3,9.8,7.6,15.8,9.8
		c5.9,2.2,12.3,3.3,18.9,3.3c7.2,0,14-1.2,20.1-3.6c6.1-2.4,11.4-5.9,15.8-10.4c4.4-4.4,7.8-9.8,10.3-15.9c2.4-6.1,3.7-13,3.7-20.3
		c0-7.8-1.4-15-4-21.2C752.5,312.9,748.9,307.5,744.4,303.2 M736.4,353.8c-1.5,3.8-3.6,6.9-6.3,9.5c-2.6,2.5-5.7,4.5-9.2,5.7
		c-3.5,1.3-7.4,2-11.4,2c-4.1,0-8-0.7-11.5-2c-3.5-1.3-6.5-3.2-9.1-5.7c-2.6-2.5-4.6-5.7-6.2-9.5c-1.5-3.8-2.3-8.3-2.3-13.4
		c0-5.1,0.8-9.6,2.3-13.4c1.5-3.8,3.6-7,6.2-9.5c2.6-2.5,5.7-4.5,9.2-5.8c3.5-1.3,7.4-2,11.5-2c4,0,7.8,0.7,11.3,2
		c3.5,1.3,6.6,3.3,9.1,5.8c2.6,2.6,4.7,5.8,6.3,9.6c1.6,3.8,2.3,8.3,2.3,13.3C738.7,345.5,737.9,350,736.4,353.8"/>
	<path d="M288.6,291.4h-13.7c-1.7,0-3.2,1.4-3.2,3.2V355c0,2.6-0.4,4.8-1.3,6.7c-0.8,1.9-2,3.5-3.5,4.7c-1.5,1.3-3.3,2.3-5.4,3
		c-2.1,0.7-5.7,1.1-8.3,1.1c-2.5,0-6.3-0.4-8.5-1.1c-2.1-0.7-4-1.7-5.5-3c-1.5-1.2-2.7-2.8-3.5-4.7c-0.8-1.9-1.3-4.1-1.3-6.7v-60.4
		c0-1.7-1.4-3.2-3.2-3.2h-13.7c-1.7,0-3.2,1.4-3.2,3.2v60.9c0,5.6,1,10.6,3.1,14.9c2.1,4.3,4.9,8,8.5,11c3.6,3,7.7,5.3,12.4,6.8
		c4.6,1.5,9.6,2.2,14.8,2.2c5.2,0,10.1-0.8,14.7-2.2c4.7-1.5,8.8-3.8,12.3-6.8c3.5-3,6.3-6.7,8.3-11c2.1-4.3,3.1-9.3,3.1-14.9v-60.9
		C291.7,292.9,290.3,291.4,288.6,291.4"/>
	<path d="M384.8,383.7l-22.2-27.6c0,0,18-6.5,18-29.3c0-4.7-0.8-9.2-2.3-13.5c-1.6-4.3-3.9-8.1-7-11.3c-3.1-3.2-6.8-5.8-11.2-7.7
		c-4.4-1.9-9.4-2.9-14.8-2.9H309c-1.7,0-3.2,1.4-3.2,3.2v91.2c0,1.8,1.4,3.2,3.2,3.2h13.7c1.7,0,3.2-1.4,3.2-3.2l0-74.3h20.3
		c2.2,0,4.1,0.4,5.9,1.2c1.8,0.8,3.3,1.9,4.6,3.2c1.2,1.3,2.2,2.9,2.9,4.8c0.7,2,1.1,4.1,1.1,6.3c0,2.2-0.4,4.3-1.1,6.2
		c-0.7,1.9-1.7,3.6-3,5c-1.3,1.4-2.7,2.2-4.4,3c-1.7,0.8-4.7,1.2-10.7,1.2h-8.5c-1.7,0-3,1.5-1.7,3.6l31.7,41.7
		c0.6,0.8,1.6,1.3,2.6,1.3h17.5C385.5,389,387.2,386.6,384.8,383.7"/>
	<path d="M847.7,383.7l-22.2-27.6c0,0,18-6.5,18-29.3c0-4.7-0.8-9.2-2.3-13.5c-1.6-4.3-3.9-8.1-7-11.3c-3.1-3.2-6.8-5.8-11.2-7.7
		c-4.4-1.9-9.4-2.9-14.8-2.9h-36.2c-1.7,0-3.2,1.4-3.2,3.2v91.2c0,1.8,1.4,3.2,3.2,3.2h13.7c1.7,0,3.2-1.4,3.2-3.2l0-74.3h20.3
		c2.2,0,4.1,0.4,5.9,1.2c1.8,0.8,3.3,1.9,4.6,3.2c1.2,1.3,2.2,2.9,2.9,4.8c0.7,2,1.1,4.1,1.1,6.3c0,2.2-0.4,4.3-1.1,6.2
		c-0.7,1.9-1.7,3.6-3,5c-1.3,1.4-2.7,2.2-4.4,3c-1.7,0.8-4.7,1.2-10.7,1.2h-8.5c-1.7,0-3,1.5-1.7,3.6l31.7,41.7
		c0.6,0.8,1.6,1.3,2.6,1.3h17.5C848.3,389,850,386.6,847.7,383.7"/>
	<path d="M1049.7,390.5h-90.9c-1.8,0-3.3-1.5-3.3-3.3v-94c0-1.8,1.5-3.3,3.3-3.3h90.9c1.8,0,3.3,1.5,3.3,3.3v94
		C1053,389.1,1051.5,390.5,1049.7,390.5"/>
	<path class="st0" d="M982.3,370.9v2c0,1.2,0.9,2.2,2.1,2.2h42.2h0c1.2,0,2.1-1,2.1-2.2v-9.8c0-1.1-0.9-2.2-2.2-2.2h-19.8l12.3-16.5
		c7.3-9.5,8.9-20,4.9-28.1c-3.4-6.8-10.4-10.7-19.4-10.7c-14,0.1-21.9,7.7-22.2,21.5l-0.1,3.3c0,1.3,1,2.2,2.3,2.2h9.5
		c1.2,0,2.2-1,2.2-2.2l0.1-3c0.2-3.7,1.7-8.1,7.7-8.1c4.9,0,7.3,3.1,7.5,6.3c0.1,3.5-0.7,6.1-3.8,10.1L983.4,368
		C982.7,368.9,982.3,369.6,982.3,370.9"/>
</g>
</svg>
