<?xml version="1.0" encoding="utf-8"?>
<!-- Generator: Adobe Illustrator 27.8.0, SVG Export Plug-In . SVG Version: 6.00 Build 0)  -->
<svg version="1.0"
	 id="svg9" xmlns:svg="http://www.w3.org/2000/svg" xmlns:inkscape="http://www.inkscape.org/namespaces/inkscape" xmlns:sodipodi="http://sodipodi.sourceforge.net/DTD/sodipodi-0.dtd"
	 xmlns="http://www.w3.org/2000/svg" xmlns:xlink="http://www.w3.org/1999/xlink" x="0px" y="0px" viewBox="0 0 1130 733.84"
	 style="enable-background:new 0 0 1130 733.84;" xml:space="preserve">
<style type="text/css">
	.st0{fill:#1554FF;}
</style>
<sodipodi:namedview  bordercolor="#000000" borderopacity="0.25" id="namedview9" inkscape:current-layer="svg9" inkscape:cx="127.90494" inkscape:cy="140.07716" inkscape:deskcolor="#d1d1d1" inkscape:pagecheckerboard="0" inkscape:pageopacity="0.0" inkscape:showpageshadow="2" inkscape:window-height="1017" inkscape:window-maximized="1" inkscape:window-width="1920" inkscape:window-x="-8" inkscape:window-y="-8" inkscape:zoom="2.5878594" pagecolor="#ffffff">
	</sodipodi:namedview>
<path id="path1" d="M908.12,441.98c-30.42,0-55.17-20.44-55.17-45.57v-64.84c0-25.13,24.75-45.57,55.17-45.57h101.71
	c30.42,0,55.17,20.44,55.17,45.57v64.84c0,25.13-24.75,45.57-55.17,45.57H908.12z M898.67,323.49c-0.63,0-1.14,0.51-1.14,1.14v78.63
	c0,0.63,0.51,1.14,1.14,1.14h119.91c0.63,0,1.14-0.51,1.14-1.14v-78.63c0-0.63-0.51-1.14-1.14-1.14H898.67z"/>
<path id="path2" d="M585.75,441.98H459.03c-30.42,0-55.17-20.44-55.17-45.57v-64.86c0-25.13,24.75-45.57,55.17-45.55h126.09l0.92,0
	c1.93,0,3.49,1.56,3.49,3.49v0.14V320c0,1.93-1.57,3.49-3.49,3.49l-0.3,0l-135.99,0c-0.73,0-1.33,0.59-1.33,1.33v78.25
	c0,0.73,0.6,1.33,1.33,1.33l135.87,0l0.42,0c1.93,0,3.49,1.56,3.49,3.49v0.07l-0.02,30.5l0.01,0.03c0,1.93-1.56,3.49-3.48,3.49
	L585.75,441.98z"/>
<path id="path3" d="M812.58,441.98H685.86c-30.42,0-55.17-20.44-55.17-45.57v-64.86c0-25.13,24.75-45.57,55.17-45.55h126.09l0.92,0
	c1.93,0,3.49,1.56,3.49,3.49v0.14V320c0,1.93-1.56,3.49-3.49,3.49l-0.29,0l-135.99,0c-0.73,0-1.33,0.59-1.33,1.33v78.25
	c0,0.73,0.6,1.33,1.33,1.33l135.87,0l0.42,0c1.93,0,3.49,1.56,3.49,3.49v0.07l-0.02,30.5l0.01,0.03c0,1.93-1.55,3.49-3.48,3.49
	L812.58,441.98z"/>
<path id="path4" class="st0" d="M586.4,381.45H473.05c-1.13,0-2.06-0.93-2.06-2.06v-30.48c0-1.13,0.93-2.06,2.06-2.06H586.4
	c1.13,0,2.06,0.93,2.06,2.06v30.48C588.46,380.52,587.54,381.45,586.4,381.45z"/>
<path id="path5" d="M260.2,447.84c-17.47,0-33.35-7.94-41.45-20.73l-0.47-0.78l-78.95-135.69c-0.53-0.94-0.51-2.02,0.02-2.93
	c0.61-1.05,1.82-1.7,3.15-1.7h41.66c1.36,0,2.58,0.67,3.18,1.75l71.31,122.06c0.15,0.18,0.6,0.56,1.62,0.59
	c1.17-0.01,1.5-0.55,1.65-0.8l77.41-121.96c0.61-1,1.8-1.63,3.11-1.63h42.31c1.36,0,2.58,0.67,3.18,1.75
	c0.52,0.93,0.5,2.04-0.06,2.95l-85.87,135.86c-7.91,13-23.79,21.15-41.42,21.27L260.2,447.84z"/>
<path id="path6" d="M106.47,441.99H68.49c-1.92,0-3.49-1.57-3.49-3.49v-149c0-1.92,1.57-3.49,3.49-3.49h37.97
	c1.92,0,3.49,1.57,3.49,3.49v149C109.96,440.41,108.39,441.99,106.47,441.99L106.47,441.99z"/>
</svg>
