<?xml version="1.0" encoding="utf-8"?>
<!-- Generator: Adobe Illustrator 26.4.1, SVG Export Plug-In . SVG Version: 6.00 Build 0)  -->
<svg version="1.0" id="katman_1" xmlns="http://www.w3.org/2000/svg" xmlns:xlink="http://www.w3.org/1999/xlink" x="0px" y="0px"
	 viewBox="0 0 841.89 595.28" style="enable-background:new 0 0 841.89 595.28;" xml:space="preserve">
<path d="M421.98,367.05c19.89,0,34.68-11.83,38.12-28.08h-17.95c-3.07,8.42-11.21,13.91-20.16,13.6c-12.27,0-21.25-8.94-23.19-23.8
	h62.05v-13.6c0-20.94-16.46-36.59-38.86-36.59c-23.8,0-40.53,16.56-40.53,44.2S397.74,367.05,421.98,367.05z M421.98,293.14
	c12.1,0,20.4,8.5,22.27,20.81h-45.32C401.04,302.11,409.57,293.14,421.98,293.14z"/>
<path d="M520.42,367.05c20.16,0,37.81-15.64,37.81-44.61s-17.65-43.73-37.81-43.73c-11.43-0.24-22.13,5.59-28.12,15.33h-0.31
	c0.25-2.93,0.35-5.87,0.31-8.81v-4.08h-16.46v109.38h16.46V361.1c0-3.16,0-5.75-0.31-9.25h0.31
	C498.21,361.66,508.98,367.48,520.42,367.05z M516.2,293.27c14.96,0,24.85,11.7,24.85,29.31c0,17.61-9.89,30.33-24.85,30.19
	c-14.96-0.14-24.21-13.36-24.21-30.36C491.99,306.33,500.97,293.44,516.2,293.27z"/>
<path d="M589.37,255.09h-16.46v109.65h16.46V255.09z"/>
<path d="M686.85,375.52v15.03h41.41c6.11,0.35,11.35-4.31,11.71-10.43c0.11-1.89-0.27-3.78-1.1-5.49l-5.68-14.38L764,281.3h-18.26
	l-21.08,59.47l-21.52-59.47h-18.39l37.4,94.22H686.85z"/>
<path d="M607.19,308.3h16.49c1.05-9.42,8.36-15.03,19.62-15.03c9.59,0,16.15,4.25,16.15,10.95c0,5.47-3.74,8.81-16.01,8.81h-6.6
	c-19.62,0-32.78,8.06-32.78,26.42c0,19.31,13.91,28.12,30.23,28.12c12.14,0,22.47-5.47,26.52-17v14.45h15.57v-55.76
	c0-17.65-8.4-30.6-33.12-30.6s-34.89,12.17-36.08,29.48V308.3z M659.89,316.36v9.59c0,18.84-10.03,27.2-22.88,27.2
	c-11.22,0-15.74-6.8-15.74-13.6s3.91-11.83,15.88-11.83h2.41c11.53,0,18.7-4.11,20.2-11.25l0,0L659.89,316.36z"/>
<path d="M375.4,281.3v16.76h-31.21v66.71h-16.52v-70.31c-0.06-7.21,5.74-13.1,12.95-13.16c0.01,0,0.02,0,0.03,0H375.4z"/>
<path d="M280.71,281.3h-51c0,34.75-22.68,57.8-50.8,57.8c-28.45-0.43-51.16-23.83-50.73-52.28c0-0.03,0-0.05,0-0.08
	c0-19.69,11.39-30.6,25.43-31.25c14.04-0.65,25.43,11.56,25.43,25.81h51c0.3-42.48-33.89-77.15-76.36-77.45c-0.06,0-0.12,0-0.17,0
	c-42.16,0-76.33,34.68-76.33,82.89c0,57.84,45.6,104.11,102,104.11S280.71,344.58,280.71,281.3z"/>
</svg>
